<?xml version="1.0" encoding="UTF-8" standalone="no"?>
<svg
   xmlns:dc="http://purl.org/dc/elements/1.1/"
   xmlns:cc="http://creativecommons.org/ns#"
   xmlns:rdf="http://www.w3.org/1999/02/22-rdf-syntax-ns#"
   xmlns:svg="http://www.w3.org/2000/svg"
   xmlns="http://www.w3.org/2000/svg"
   xmlns:sodipodi="http://sodipodi.sourceforge.net/DTD/sodipodi-0.dtd"
   xmlns:inkscape="http://www.inkscape.org/namespaces/inkscape"
   sodipodi:docname="nclusive-logo.svg"
   inkscape:version="1.0beta2 (2b71d25, 2019-12-03)"
   id="svg1807"
   version="1.1"
   viewBox="0 0 112.37021 22.18265"
   height="22.18265mm"
   width="112.37021mm">
  <defs
     id="defs1801" />
  <sodipodi:namedview
     inkscape:window-maximized="0"
     inkscape:window-y="362"
     inkscape:window-x="2225"
     inkscape:window-height="880"
     inkscape:window-width="1600"
     showgrid="false"
     inkscape:document-rotation="0"
     inkscape:current-layer="layer1"
     inkscape:document-units="mm"
     inkscape:cy="856.20568"
     inkscape:cx="-484.78971"
     inkscape:zoom="0.35"
     inkscape:pageshadow="2"
     inkscape:pageopacity="0.0"
     borderopacity="1.0"
     bordercolor="#666666"
     pagecolor="#ffffff"
     id="base" />
  <metadata
     id="metadata1804">
    <rdf:RDF>
      <cc:Work
         rdf:about="">
        <dc:format>image/svg+xml</dc:format>
        <dc:type
           rdf:resource="http://purl.org/dc/dcmitype/StillImage" />
        <dc:title></dc:title>
      </cc:Work>
    </rdf:RDF>
  </metadata>
  <g
     transform="translate(-234.10061,78.371087)"
     id="layer1"
     inkscape:groupmode="layer"
     inkscape:label="Layer 1">
    <path
       inkscape:connector-curvature="0"
       id="path1733"
       style="font-weight:bold;font-size:28.2222px;line-height:1.25;font-family:Comfortaa;-inkscape-font-specification:'Comfortaa Bold';letter-spacing:-0.529167px;white-space:pre;shape-inside:url(#rect835);fill:#db335b;fill-opacity:1;stroke-width:1"
       d="m 247.13927,-56.301327 q -0.62089,0 -1.04423,-0.39511 -0.39511,-0.42333 -0.39511,-1.04422 v -6.94266 q 0,-1.60866 -0.59266,-2.62466 -0.59267,-1.016 -1.60867,-1.49578 -0.98778,-0.508 -2.286,-0.508 -1.18533,0 -2.14488,0.47978 -0.95956,0.47977 -1.524,1.29822 -0.56445,0.79022 -0.56445,1.83444 h -1.778 q 0,-1.778 0.84667,-3.16089 0.87489,-1.4111 2.37067,-2.22955 1.49577,-0.81844 3.35844,-0.81844 1.94733,0 3.47133,0.84666 1.55222,0.81845 2.42711,2.42711 0.90311,1.60867 0.90311,3.95111 v 6.94266 q 0,0.62089 -0.42334,1.04422 -0.39511,0.39511 -1.01599,0.39511 z m -11.59933,0 q -0.62089,0 -1.04422,-0.39511 -0.39511,-0.42333 -0.39511,-1.04422 v -12.5871 q 0,-0.64911 0.39511,-1.04422 0.42333,-0.39511 1.04422,-0.39511 0.64911,0 1.04422,0.39511 0.39511,0.39511 0.39511,1.04422 v 12.5871 q 0,0.62089 -0.39511,1.04422 -0.39511,0.39511 -1.04422,0.39511 z" />
    <path
       inkscape:connector-curvature="0"
       id="path1735"
       style="font-weight:bold;font-size:28.2222px;line-height:1.25;font-family:Comfortaa;-inkscape-font-specification:'Comfortaa Bold';letter-spacing:-0.529167px;white-space:pre;shape-inside:url(#rect835);fill:#0780a8;fill-opacity:1;stroke-width:1"
       d="m 259.27878,-56.216657 q -2.25778,0 -4.03578,-1.016 -1.74977,-1.04422 -2.76577,-2.794 -0.98778,-1.778 -0.98778,-4.00755 0,-2.286 0.98778,-4.064 0.98778,-1.77799 2.70933,-2.76577 1.72155,-1.016 3.95111,-1.016 1.66511,0 3.04799,0.64911 1.38289,0.62089 2.48356,1.89089 0.39511,0.45155 0.28222,0.93133 -0.11289,0.47978 -0.62089,0.84667 -0.39511,0.28222 -0.87489,0.19755 -0.47977,-0.11289 -0.87488,-0.508 -1.38289,-1.46755 -3.44311,-1.46755 -1.43933,0 -2.54,0.67733 -1.10067,0.64911 -1.72155,1.83444 -0.62089,1.18534 -0.62089,2.794 0,1.524 0.62089,2.70933 0.64911,1.18533 1.77799,1.89089 1.12889,0.67733 2.62467,0.67733 0.98778,0 1.72155,-0.22578 0.762,-0.254 1.38289,-0.76199 0.45156,-0.36689 0.93133,-0.39512 0.47978,-0.0565 0.84667,0.254 0.47978,0.39511 0.53622,0.90311 0.0564,0.47978 -0.33867,0.87489 -2.03199,1.89089 -5.07999,1.89089 z" />
    <path
       inkscape:connector-curvature="0"
       id="path1737"
       style="font-weight:bold;font-size:28.2222px;line-height:1.25;font-family:Comfortaa;-inkscape-font-specification:'Comfortaa Bold';letter-spacing:-0.529167px;white-space:pre;shape-inside:url(#rect835);fill:#0780a8;fill-opacity:1;stroke-width:1"
       d="m 272.39681,-56.329547 q -1.24178,0 -2.20133,-0.67733 -0.95956,-0.67733 -1.49578,-1.83444 -0.53622,-1.18534 -0.53622,-2.70933 v -15.40933 q 0,-0.62088 0.39511,-1.016 0.39511,-0.39511 1.016,-0.39511 0.62089,0 1.016,0.39511 0.39511,0.39512 0.39511,1.016 v 15.40933 q 0,1.04422 0.39511,1.72155 0.39511,0.67733 1.016,0.67733 h 0.70556 q 0.56444,0 0.90311,0.39511 0.36689,0.39511 0.36689,1.016 0,0.62089 -0.53623,1.016 -0.53622,0.39511 -1.38289,0.39511 z" />
    <path
       inkscape:connector-curvature="0"
       id="path1739"
       style="font-weight:bold;font-size:28.2222px;line-height:1.25;font-family:Comfortaa;-inkscape-font-specification:'Comfortaa Bold';letter-spacing:-0.529167px;white-space:pre;shape-inside:url(#rect835);fill:#0780a8;fill-opacity:1;stroke-width:1"
       d="m 283.17857,-56.188437 q -1.94733,0 -3.49955,-0.81844 -1.524,-0.84667 -2.42711,-2.45533 -0.87489,-1.60867 -0.87489,-3.95111 v -6.94266 q 0,-0.62089 0.39511,-1.016 0.42334,-0.42333 1.04422,-0.42333 0.62089,0 1.016,0.42333 0.42334,0.39511 0.42334,1.016 v 6.94266 q 0,1.58044 0.59266,2.62466 0.59267,1.016 1.60867,1.524 1.016,0.47978 2.286,0.47978 1.21355,0 2.14488,-0.47978 0.95956,-0.47977 1.524,-1.29822 0.56445,-0.81844 0.56445,-1.83444 h 1.778 q 0,1.74977 -0.87489,3.16089 -0.84667,1.41111 -2.34244,2.22955 -1.46756,0.81844 -3.35845,0.81844 z m 6.23711,-0.14111 q -0.62089,0 -1.04422,-0.39511 -0.39511,-0.42333 -0.39511,-1.04422 v -12.5871 q 0,-0.64911 0.39511,-1.04422 0.42333,-0.39511 1.04422,-0.39511 0.64911,0 1.04422,0.39511 0.39511,0.39511 0.39511,1.04422 v 12.5871 q 0,0.62089 -0.39511,1.04422 -0.39511,0.39511 -1.04422,0.39511 z" />
    <path
       inkscape:connector-curvature="0"
       id="path1741"
       style="font-weight:bold;font-size:28.2222px;line-height:1.25;font-family:Comfortaa;-inkscape-font-specification:'Comfortaa Bold';letter-spacing:-0.529167px;white-space:pre;shape-inside:url(#rect835);fill:#0780a8;fill-opacity:1;stroke-width:1"
       d="m 301.01191,-56.216657 q -1.97555,0 -3.66888,-0.59267 -1.66511,-0.62088 -2.59644,-1.55222 -0.42334,-0.45155 -0.36689,-1.016 0.0847,-0.59266 0.56444,-0.95955 0.56445,-0.45156 1.10067,-0.36689 0.56444,0.0564 0.95955,0.47978 0.47978,0.53622 1.524,1.016 1.07244,0.45155 2.37066,0.45155 1.63689,0 2.48356,-0.53622 0.87489,-0.53622 0.90311,-1.38289 0.0282,-0.84666 -0.81845,-1.46755 -0.81844,-0.62089 -3.01977,-1.016 -2.85044,-0.56445 -4.14866,-1.69333 -1.27,-1.12889 -1.27,-2.76578 0,-1.43933 0.84666,-2.37066 0.84667,-0.95956 2.17311,-1.41111 1.32645,-0.47978 2.76578,-0.47978 1.86266,0 3.302,0.59267 1.43933,0.59266 2.286,1.63688 0.39511,0.45156 0.36688,0.95956 -0.0282,0.47977 -0.47977,0.81844 -0.45156,0.31045 -1.07245,0.19756 -0.62089,-0.11289 -1.04422,-0.508 -0.70556,-0.67734 -1.524,-0.93134 -0.81844,-0.254 -1.89089,-0.254 -1.24177,0 -2.11666,0.42334 -0.84667,0.42333 -0.84667,1.24177 0,0.508 0.254,0.93134 0.28222,0.39511 1.07245,0.73377 0.79022,0.31045 2.31422,0.62089 2.11666,0.42334 3.33022,1.07245 1.24177,0.64911 1.778,1.524 0.53622,0.84666 0.53622,1.97555 0,1.29822 -0.70556,2.34244 -0.67733,1.04422 -2.032,1.66511 -1.32644,0.62089 -3.33022,0.62089 z" />
    <path
       inkscape:connector-curvature="0"
       id="path1743"
       style="font-weight:bold;font-size:28.2222px;line-height:1.25;font-family:Comfortaa;-inkscape-font-specification:'Comfortaa Bold';letter-spacing:-0.529167px;white-space:pre;shape-inside:url(#rect835);fill:#0780a8;fill-opacity:1;stroke-width:1"
       d="m 311.91186,-56.329547 q -0.62089,0 -1.04423,-0.39511 -0.39511,-0.42333 -0.39511,-1.04422 v -12.55888 q 0,-0.64911 0.39511,-1.04422 0.42334,-0.39511 1.04423,-0.39511 0.64911,0 1.04422,0.39511 0.39511,0.39511 0.39511,1.04422 v 12.55888 q 0,0.62089 -0.39511,1.04422 -0.39511,0.39511 -1.04422,0.39511 z m 0,-17.94932 q -0.762,0 -1.32645,-0.53622 -0.53622,-0.56444 -0.53622,-1.32644 0,-0.762 0.53622,-1.29822 0.56445,-0.56445 1.32645,-0.56445 0.762,0 1.29822,0.56445 0.56444,0.53622 0.56444,1.29822 0,0.762 -0.56444,1.32644 -0.53622,0.53622 -1.29822,0.53622 z" />
    <path
       inkscape:connector-curvature="0"
       id="path1745"
       style="font-weight:bold;font-size:28.2222px;line-height:1.25;font-family:Comfortaa;-inkscape-font-specification:'Comfortaa Bold';letter-spacing:-0.529167px;white-space:pre;shape-inside:url(#rect835);fill:#0780a8;fill-opacity:1;stroke-width:1"
       d="m 323.42607,-56.357767 q -0.87489,0 -1.35466,-0.93133 l -5.98311,-12.61533 q -0.22578,-0.47977 -0.0564,-0.93133 0.19754,-0.47978 0.73376,-0.73378 0.47978,-0.254 0.95956,-0.0847 0.508,0.16934 0.762,0.64911 l 5.588,12.05088 h -1.35466 l 5.53155,-12.05088 q 0.254,-0.47977 0.762,-0.64911 0.53622,-0.16933 1.07244,0.0847 0.508,0.22578 0.67733,0.70556 0.16934,0.47978 -0.0564,0.95955 l -5.98311,12.61533 q -0.42333,0.93133 -1.29822,0.93133 z" />
    <path
       inkscape:connector-curvature="0"
       id="path1747"
       style="font-weight:bold;font-size:28.2222px;line-height:1.25;font-family:Comfortaa;-inkscape-font-specification:'Comfortaa Bold';letter-spacing:-0.529167px;white-space:pre;shape-inside:url(#rect835);fill:#0780a8;fill-opacity:1;stroke-width:1"
       d="m 339.86682,-56.216657 q -2.34244,0 -4.17688,-0.98778 -1.80622,-1.016 -2.85044,-2.76577 -1.016,-1.778 -1.016,-4.064 0,-2.31422 0.95955,-4.064 0.98778,-1.77799 2.70933,-2.76577 1.72156,-1.016 3.95111,-1.016 2.20133,0 3.78178,0.98778 1.58044,0.95955 2.39888,2.6811 0.84667,1.69334 0.84667,3.92289 0,0.53622 -0.36689,0.90311 -0.36689,0.33867 -0.93133,0.33867 h -11.37355 v -2.25778 h 11.28888 l -1.15711,0.79022 q -0.0282,-1.41111 -0.56444,-2.51177 -0.53623,-1.12889 -1.524,-1.778 -0.98778,-0.64911 -2.39889,-0.64911 -1.60866,0 -2.76578,0.70555 -1.12888,0.70556 -1.72155,1.94734 -0.59267,1.21355 -0.59267,2.76577 0,1.55222 0.70556,2.76578 0.70555,1.21355 1.94733,1.91911 1.24178,0.70555 2.85044,0.70555 0.87489,0 1.778,-0.31044 0.93133,-0.33867 1.49578,-0.762 0.42333,-0.31045 0.90311,-0.31045 0.508,-0.0282 0.87489,0.28223 0.47977,0.42333 0.508,0.93133 0.0282,0.508 -0.45156,0.87489 -0.95955,0.762 -2.39889,1.24177 -1.41111,0.47978 -2.70933,0.47978 z" />
  </g>
</svg>
