<?xml version="1.0" encoding="UTF-8" standalone="no"?>
<svg
   xmlns:dc="http://purl.org/dc/elements/1.1/"
   xmlns:cc="http://creativecommons.org/ns#"
   xmlns:rdf="http://www.w3.org/1999/02/22-rdf-syntax-ns#"
   xmlns:svg="http://www.w3.org/2000/svg"
   xmlns="http://www.w3.org/2000/svg"
   xmlns:sodipodi="http://sodipodi.sourceforge.net/DTD/sodipodi-0.dtd"
   xmlns:inkscape="http://www.inkscape.org/namespaces/inkscape"
   width="14.47799mm"
   height="15.60687mm"
   viewBox="0 0 14.47799 15.60687"
   version="1.1"
   id="svg1807"
   inkscape:version="1.0beta2 (2b71d25, 2019-12-03)"
   sodipodi:docname="nclusive-favicon.svg">
  <defs
     id="defs1801" />
  <sodipodi:namedview
     id="base"
     pagecolor="#ffffff"
     bordercolor="#666666"
     borderopacity="1.0"
     inkscape:pageopacity="0.0"
     inkscape:pageshadow="2"
     inkscape:zoom="0.35"
     inkscape:cx="-484.78971"
     inkscape:cy="603.20758"
     inkscape:document-units="mm"
     inkscape:current-layer="layer1"
     inkscape:document-rotation="0"
     showgrid="false"
     inkscape:window-width="1600"
     inkscape:window-height="880"
     inkscape:window-x="2225"
     inkscape:window-y="334"
     inkscape:window-maximized="0" />
  <metadata
     id="metadata1804">
    <rdf:RDF>
      <cc:Work
         rdf:about="">
        <dc:format>image/svg+xml</dc:format>
        <dc:type
           rdf:resource="http://purl.org/dc/dcmitype/StillImage" />
        <dc:title></dc:title>
      </cc:Work>
    </rdf:RDF>
  </metadata>
  <g
     inkscape:label="Layer 1"
     inkscape:groupmode="layer"
     id="layer1"
     transform="translate(-234.10061,71.908197)">
    <path
       d="m 247.13927,-56.301327 q -0.62089,0 -1.04423,-0.39511 -0.39511,-0.42333 -0.39511,-1.04422 v -6.94266 q 0,-1.60866 -0.59266,-2.62466 -0.59267,-1.016 -1.60867,-1.49578 -0.98778,-0.508 -2.286,-0.508 -1.18533,0 -2.14488,0.47978 -0.95956,0.47977 -1.524,1.29822 -0.56445,0.79022 -0.56445,1.83444 h -1.778 q 0,-1.778 0.84667,-3.16089 0.87489,-1.4111 2.37067,-2.22955 1.49577,-0.81844 3.35844,-0.81844 1.94733,0 3.47133,0.84666 1.55222,0.81845 2.42711,2.42711 0.90311,1.60867 0.90311,3.95111 v 6.94266 q 0,0.62089 -0.42334,1.04422 -0.39511,0.39511 -1.01599,0.39511 z m -11.59933,0 q -0.62089,0 -1.04422,-0.39511 -0.39511,-0.42333 -0.39511,-1.04422 v -12.5871 q 0,-0.64911 0.39511,-1.04422 0.42333,-0.39511 1.04422,-0.39511 0.64911,0 1.04422,0.39511 0.39511,0.39511 0.39511,1.04422 v 12.5871 q 0,0.62089 -0.39511,1.04422 -0.39511,0.39511 -1.04422,0.39511 z"
       style="font-weight:bold;font-size:28.2222px;line-height:1.25;font-family:Comfortaa;-inkscape-font-specification:'Comfortaa Bold';letter-spacing:-0.529167px;white-space:pre;shape-inside:url(#rect835);fill:#db335b;fill-opacity:1;stroke-width:1"
       id="path1733"
       inkscape:connector-curvature="0" />
  </g>
</svg>
